# Blender 3.3.1
# www.blender.org
mtllib Arrow.mtl
o Elven_Long_Bow_Arrow
v 0.000031 0.356996 -0.055988
v -0.092509 0.404035 -0.047038
v -0.086779 0.317815 -0.042928
v -0.144959 0.368036 -0.033818
v -0.132409 0.276586 -0.036868
v -0.111309 0.208995 -0.041978
v -0.062469 0.114396 -0.050018
v 0.000031 0.020276 -0.053208
v 0.000031 -0.215443 -0.047788
v 0.000031 -0.453015 -0.033888
v 0.000031 -0.691192 -0.019958
v -0.000029 -0.916484 -0.009428
v 0.092121 0.403856 -0.047208
v 0.086581 0.317296 -0.043478
v 0.144811 0.368215 -0.033878
v 0.132471 0.276596 -0.036848
v 0.111481 0.208946 -0.041798
v 0.062521 0.114406 -0.050038
v 0.000031 0.357566 0.055882
v -0.091379 0.402965 0.045302
v -0.086859 0.317956 0.043472
v -0.144039 0.367687 0.032512
v -0.132309 0.276527 0.037692
v -0.111359 0.208967 0.042652
v -0.062609 0.114316 0.050602
v 0.000031 0.020265 0.053892
v 0.000031 -0.215443 0.048522
v 0.000031 -0.453015 0.034592
v 0.000031 -0.691184 0.020762
v -0.000029 -0.916505 0.010122
v 0.091441 0.403165 0.045092
v 0.144161 0.367385 0.032452
v 0.086611 0.317336 0.044122
v 0.132521 0.276596 0.037422
v 0.111481 0.208946 0.042562
v 0.062651 0.114326 0.050652
v -0.058619 -0.920844 -0.000018
v 0.058661 -0.920893 -0.000018
v -0.099899 -0.454724 -0.000038
v -0.082399 -0.692624 -0.000038
v 0.099951 -0.454714 -0.000038
v 0.082381 -0.692614 -0.000038
v -0.139169 -0.038273 -0.000038
v -0.117259 -0.222114 -0.000038
v 0.139231 -0.038285 -0.000048
v 0.117311 -0.222114 -0.000038
v -0.238099 0.327316 0.000032
v -0.190569 0.191245 -0.000038
v -0.160129 0.075576 -0.000038
v 0.238481 0.327285 -0.000198
v 0.190611 0.191245 -0.000038
v 0.160191 0.075576 -0.000038
v -0.000189 -1.095423 -0.000028
v -0.112059 0.416816 0.001902
v -0.164289 0.386035 0.000932
v 0.111671 0.417415 -0.002978
v 0.164071 0.385946 -0.001318
v 0.000031 0.449788 -0.055988
v 0.000031 0.450359 0.055882
v 0.000031 0.461813 -0.000201
vn 0.4055 -0.9114 -0.0701
vn 0.5492 -0.8357 0.0019
vn 0.3928 -0.9107 0.1275
vn 0.9648 -0.2630 0.0001
vn 0.9253 0.3793 0.0005
vn 0.9253 0.3792 0.0005
vn 0.8620 0.5068 0.0010
vn 0.8620 0.5069 0.0010
vn -0.0003 1.0000 0.0014
vn -0.0002 1.0000 0.0014
vn -0.5473 -0.8370 0.0017
vn -0.5473 -0.8369 0.0017
vn -0.9632 -0.2686 0.0005
vn -0.9252 0.3794 0.0006
vn -0.8617 0.5074 0.0008
vn -0.7721 0.1100 -0.6259
vn -0.0028 -0.1939 -0.9810
vn -0.2148 -0.0314 -0.9762
vn -0.2147 -0.0315 -0.9762
vn -0.7323 0.1464 0.6651
vn -0.2189 -0.0053 0.9757
vn 0.0053 -0.1891 0.9820
vn 0.7335 0.1443 -0.6642
vn 0.2150 -0.0292 -0.9762
vn 0.7479 0.1406 0.6487
vn 0.2209 -0.0017 0.9753
vn -0.3415 -0.0600 -0.9380
vn -0.4166 -0.1204 -0.9011
vn -0.4157 -0.1198 -0.9016
vn -0.3459 -0.0494 0.9370
vn -0.4216 -0.1226 0.8984
vn -0.4222 -0.1230 0.8981
vn -0.3458 -0.0493 0.9370
vn -0.3888 -0.1266 -0.9126
vn -0.3937 -0.1286 0.9102
vn -0.3936 -0.1286 0.9102
vn -0.0000 -0.0845 -0.9964
vn -0.3559 -0.0790 -0.9312
vn -0.3605 -0.0798 0.9293
vn -0.0000 -0.0857 0.9963
vn -0.0000 -0.0380 -0.9993
vn -0.3547 -0.0356 -0.9343
vn -0.3601 -0.0358 0.9322
vn -0.0000 -0.0382 0.9993
vn -0.0000 -0.0417 -0.9991
vn -0.3163 -0.0395 -0.9478
vn -0.3235 -0.0397 0.9454
vn -0.0000 -0.0419 0.9991
vn -0.0000 -0.0371 -0.9993
vn -0.2423 -0.0359 -0.9695
vn -0.2519 -0.0363 0.9671
vn -0.0000 -0.0375 0.9993
vn -0.0001 -0.0428 -0.9991
vn -0.1785 -0.0425 -0.9830
vn -0.1900 -0.0447 0.9808
vn -0.0001 -0.0452 0.9990
vn 0.3416 -0.0614 -0.9378
vn 0.3409 -0.0609 -0.9381
vn 0.4148 -0.1204 -0.9019
vn 0.4150 -0.1205 -0.9018
vn 0.3474 -0.0498 0.9364
vn 0.3474 -0.0499 0.9364
vn 0.4220 -0.1223 0.8983
vn 0.4212 -0.1217 0.8988
vn 0.3887 -0.1263 -0.9127
vn 0.3938 -0.1285 0.9102
vn 0.3559 -0.0790 -0.9312
vn 0.3606 -0.0799 0.9293
vn 0.3547 -0.0356 -0.9343
vn 0.3602 -0.0357 0.9322
vn 0.3162 -0.0395 -0.9479
vn 0.3231 -0.0397 0.9455
vn 0.2428 -0.0360 -0.9694
vn 0.2517 -0.0363 0.9671
vn 0.1783 -0.0427 -0.9830
vn 0.1895 -0.0450 0.9808
vn -0.0001 -0.0525 -0.9986
vn -0.0001 -0.0566 0.9984
vn -0.5016 0.6686 -0.5490
vn -0.6052 0.7954 0.0339
vn -0.5730 0.7907 0.2157
vn -0.4868 0.6307 0.6043
vn 0.5001 0.6445 -0.5784
vn 0.3361 0.9417 -0.0145
vn 0.6051 0.7961 -0.0031
vn 0.4892 0.6573 0.5733
vn -0.6225 0.7820 0.0317
vn 0.6191 0.7853 0.0002
vn 0.0023 0.6566 0.7543
vn -0.0006 1.0000 0.0056
vn -0.0032 0.6610 -0.7504
vt 0.688920 0.115060
vt 0.668640 0.132880
vt 0.708980 0.133210
vt 0.675500 0.130260
vt 0.685960 0.117750
vt 0.669650 0.127120
vt 0.674450 0.126470
vt 0.683550 0.114900
vt 0.668330 0.122830
vt 0.682910 0.110820
vt 0.666450 0.118090
vt 0.683030 0.104530
vt 0.662140 0.111920
vt 0.682730 0.097180
vt 0.695540 0.097350
vt 0.656980 0.106030
vt 0.721190 0.106610
vt 0.654640 0.089290
vt 0.723950 0.089910
vt 0.654920 0.072470
vt 0.724110 0.073080
vt 0.657390 0.056110
vt 0.722030 0.056690
vt 0.661000 0.041100
vt 0.718780 0.041580
vt 0.702250 0.130420
vt 0.691810 0.117850
vt 0.708180 0.127400
vt 0.703350 0.126650
vt 0.694030 0.114840
vt 0.709540 0.123130
vt 0.695600 0.110880
vt 0.711490 0.118420
vt 0.695260 0.104560
vt 0.715910 0.112350
vt 0.688910 0.124730
vt 0.682400 0.127630
vt 0.682740 0.121490
vt 0.679640 0.124400
vt 0.679970 0.117560
vt 0.677520 0.112930
vt 0.676160 0.105850
vt 0.675880 0.098680
vt 0.702460 0.098700
vt 0.671060 0.086250
vt 0.707630 0.086440
vt 0.668840 0.071920
vt 0.710200 0.072210
vt 0.668600 0.056790
vt 0.710810 0.057110
vt 0.668770 0.041920
vt 0.710980 0.042220
vt 0.695380 0.127680
vt 0.698220 0.124480
vt 0.695150 0.121480
vt 0.697910 0.117640
vt 0.700450 0.113160
vt 0.702110 0.105970
vt 0.664810 0.041970
vt 0.714950 0.042370
vt 0.661870 0.072630
vt 0.662890 0.056840
vt 0.717150 0.073090
vt 0.716510 0.057290
vt 0.665560 0.100490
vt 0.662780 0.088180
vt 0.712740 0.100860
vt 0.715860 0.088610
vt 0.674450 0.120510
vt 0.671740 0.114930
vt 0.668550 0.107860
vt 0.703440 0.120660
vt 0.706250 0.115190
vt 0.709570 0.108160
vt 0.666410 0.030160
vt 0.713620 0.030500
vt 0.679050 0.128830
vt 0.677140 0.125430
vt 0.698980 0.129080
vt 0.700800 0.125610
vt 0.000000 0.000000
vt 0.000000 0.000000
vt 0.000000 0.000000
s 1
f 19/36/1 21/38/2 3/5/2 1/1/3
f 21/38/2 23/40/4 5/8/4 3/5/2
f 23/40/4 24/41/5 6/10/6 5/8/4
f 24/41/5 25/42/7 7/12/8 6/10/6
f 25/42/7 26/43/9 8/14/10 7/12/8
f 33/55/11 19/36/1 1/1/3 14/27/12
f 34/56/13 33/55/11 14/27/12 16/30/13
f 35/57/14 34/56/13 16/30/13 17/32/14
f 36/58/15 35/57/14 17/32/14 18/34/15
f 26/44/9 36/58/15 18/34/15 8/15/10
f 2/4/16 1/2/17 3/6/18 4/7/19
f 20/37/20 22/39/21 21/38/21 19/36/22
f 13/26/23 15/29/24 14/28/24 1/3/17
f 31/53/25 19/36/22 33/55/26 32/54/26
f 4/7/19 3/6/18 5/9/27 47/69/27
f 47/69/27 5/9/27 6/11/28 48/70/29
f 47/69/30 48/70/31 24/41/32 23/40/33
f 48/70/29 6/11/28 7/13/34 49/71/34
f 48/70/31 49/71/35 25/42/36 24/41/32
f 49/71/34 7/13/34 8/16/37 43/65/38
f 49/71/35 43/65/39 26/43/40 25/42/36
f 43/65/38 8/16/37 9/18/41 44/66/42
f 43/65/39 44/66/43 27/45/44 26/43/40
f 44/66/42 9/18/41 10/20/45 39/61/46
f 44/66/43 39/61/47 28/47/48 27/45/44
f 39/61/46 10/20/45 11/22/49 40/62/50
f 39/61/47 40/62/51 29/49/52 28/47/48
f 40/62/50 11/22/49 12/24/53 37/59/54
f 40/62/51 37/59/55 30/51/56 29/49/52
f 15/29/24 50/72/57 16/31/58 14/28/24
f 50/72/57 51/73/59 17/33/60 16/31/58
f 50/72/61 34/56/62 35/57/63 51/73/64
f 51/73/59 52/74/65 18/35/65 17/33/60
f 51/73/64 35/57/63 36/58/66 52/74/66
f 52/74/65 45/67/67 8/17/37 18/35/65
f 52/74/66 36/58/66 26/44/40 45/67/68
f 45/67/67 46/68/69 9/19/41 8/17/37
f 45/67/68 26/44/40 27/46/44 46/68/70
f 46/68/69 41/63/71 10/21/45 9/19/41
f 46/68/70 27/46/44 28/48/48 41/63/72
f 41/63/71 42/64/73 11/23/49 10/21/45
f 41/63/72 28/48/48 29/50/52 42/64/74
f 42/64/73 38/60/75 12/25/53 11/23/49
f 42/64/74 29/50/52 30/52/56 38/60/76
f 37/59/54 12/24/53 53/75/77
f 37/59/55 53/75/78 30/51/56
f 38/60/75 53/76/77 12/25/53
f 38/60/76 30/52/56 53/76/78
f 2/4/16 4/7/79 55/78/80 54/77/81
f 55/78/80 22/39/82 20/37/20 54/77/81
f 15/29/83 13/26/23 56/79/84 57/80/85
f 56/79/84 31/53/25 32/54/86 57/80/85
f 4/7/79 47/69/87 55/78/80
f 22/39/82 55/78/80 47/69/87
f 50/72/88 15/29/83 57/80/85
f 32/54/86 50/72/88 57/80/85
f 47/69/30 23/40/33 21/38/21 22/39/21
f 50/72/61 32/54/26 33/55/26 34/56/62
f 20/37/20 19/36/22 31/53/25 59/82/89
f 54/77/81 20/37/20 59/82/89 60/83/90
f 56/79/84 60/83/90 59/82/89 31/53/25
f 56/79/84 13/26/23 58/81/91 60/83/90
f 2/4/16 58/81/91 13/26/23 1/3/17
f 54/77/81 60/83/90 58/81/91 2/4/16
